<svg width="25" height="24" viewBox="0 0 25 24" fill="none" xmlns="http://www.w3.org/2000/svg">
<g clip-path="url(#clip0_103_2179)">
<path d="M24.5 8.32725H20.9478L14.315 1.9635L13.2194 3.10537L18.6621 8.32725H6.3166L11.6819 3.10121L10.5778 1.96767L4.04873 8.32725H0.5V9.90966H1.45557L2.98149 19.7278C3.18267 21.0224 4.36664 22.0365 5.67683 22.0365H19.2203C20.5272 22.0365 21.7166 21.0262 21.9281 19.7364L23.5388 9.90972H24.5V8.32725ZM20.3665 19.4804C20.2815 19.9991 19.7458 20.4541 19.2203 20.4541H5.67683C5.15426 20.4541 4.62542 20.0011 4.54519 19.4847L3.05703 9.90966H21.9352L20.3665 19.4804Z" fill="#F59100"/>
</g>
<defs>
<clipPath id="clip0_103_2179">
<rect width="24" height="24" fill="white" transform="translate(0.5)"/>
</clipPath>
</defs>
</svg>
