<svg width="24" height="25" viewBox="0 0 24 25" fill="none" xmlns="http://www.w3.org/2000/svg">
<g clip-path="url(#clip0_103_2170)">
<path d="M11.9996 0.5C8.75874 0.5 6.12207 3.13667 6.12207 6.37756C6.12207 9.61845 8.75874 12.2551 11.9996 12.2551C15.2405 12.2551 17.8772 9.61841 17.8772 6.37752C17.8772 3.13662 15.2405 0.5 11.9996 0.5ZM11.9996 10.7857C9.56898 10.7857 7.59146 8.80822 7.59146 6.37756C7.59146 3.94691 9.56898 1.96939 11.9996 1.96939C14.4303 1.96939 16.4078 3.94691 16.4078 6.37756C16.4078 8.80822 14.4303 10.7857 11.9996 10.7857Z" fill="#F59100"/>
<path d="M11.9998 13.7245C6.4633 13.7245 1.95898 18.2288 1.95898 23.7653V24.5H22.0406V23.7653C22.0406 18.2288 17.5363 13.7245 11.9998 13.7245ZM3.45955 23.0306C3.83347 18.647 7.52098 15.1939 11.9998 15.1939C16.4786 15.1939 20.1661 18.647 20.54 23.0306H3.45955Z" fill="#F59100"/>
</g>
<defs>
<clipPath id="clip0_103_2170">
<rect width="24" height="24" fill="white" transform="translate(0 0.5)"/>
</clipPath>
</defs>
</svg>
