<svg width="24" height="24" viewBox="0 0 24 24" fill="none" xmlns="http://www.w3.org/2000/svg">
<g clip-path="url(#clip0_1_1737)">
<path d="M19.2139 12.8391L23.9856 5.625H16.6677L16.5311 6.15436C16.1804 7.51336 15.5223 9.35521 14.3788 10.4125C14.2375 10.543 14.1036 10.6479 13.9804 10.732V5.625H7.60672V7.03601H8.20218V10.2339C7.4877 9.60551 6.58994 8.40636 6.35483 6.25396L6.28617 5.625H0L0.215881 6.49951C0.992061 9.64452 2.15642 12.221 3.67693 14.1573C4.91819 15.7382 6.39658 16.8989 8.07089 17.607C9.56612 18.2395 10.9429 18.3945 11.9335 18.3945C12.8446 18.3945 13.4289 18.2633 13.478 18.2519L14.0154 18.1267L14.0432 16.1883L16.4366 18.2704H24.0001L19.2139 12.8391ZM12.6756 13.1286L12.621 16.9511C11.8331 17.0213 10.2722 17.024 8.54953 16.2771C7.11087 15.6533 5.83298 14.6317 4.75138 13.2407C3.51268 11.6477 2.52721 9.5634 1.8164 7.03601H5.04032C5.73814 11.083 8.54568 12.1302 8.67074 12.1747L9.61318 12.5108V7.03601H12.5696V12.5178L13.3119 12.479C13.4022 12.4742 14.2219 12.4088 15.19 11.5792C16.2899 10.6364 17.1507 9.10967 17.7524 7.03601H21.3606L17.4411 12.9615L20.876 16.8592H16.9643L12.6756 13.1286Z" fill="white"/>
</g>
<defs>
<clipPath id="clip0_1_1737">
<rect width="24" height="24" fill="white"/>
</clipPath>
</defs>
</svg>
