<svg width="24" height="24" viewBox="0 0 24 24" fill="none" xmlns="http://www.w3.org/2000/svg">
<g clip-path="url(#clip0_1_1739)">
<path d="M23.5043 6.33582C23.1801 5.11505 22.2242 4.15393 21.0103 3.82745C19.2103 3.34222 12.7328 3.32812 12 3.32812C11.2672 3.32812 4.78967 3.34222 2.99011 3.82727C1.77576 4.15393 0.819946 5.11505 0.49585 6.33527C0.00567627 8.17603 0 11.8336 0 11.9883C0 12.143 0.00567627 15.8005 0.495667 17.6407C0.819946 18.8615 1.77576 19.8226 2.98975 20.1491C4.78967 20.6343 11.2672 20.6484 12 20.6484C12.7328 20.6484 19.2103 20.6343 21.0099 20.1493C22.2242 19.8226 23.1801 18.8615 23.5042 17.6413C23.9943 15.8005 24 12.143 24 11.9883C24 11.8336 23.9943 8.17603 23.5043 6.33582ZM22.1451 17.2798C21.9498 18.0157 21.3746 18.5949 20.6442 18.7914C19.2729 19.1611 13.9395 19.2422 12 19.2422C10.0607 19.2422 4.72723 19.1611 3.35541 18.7912C2.62537 18.5949 2.05042 18.0157 1.85468 17.2793C1.41174 15.6163 1.40625 12.0244 1.40625 11.9883C1.40625 11.9522 1.41138 8.36188 1.85486 6.69672C2.05023 5.96082 2.62537 5.38165 3.35577 5.18518C4.72705 4.81549 10.0607 4.73438 12 4.73438C13.9393 4.73438 19.2729 4.81549 20.6446 5.18536C21.3746 5.38165 21.9498 5.96082 22.1453 6.69727C22.5883 8.36023 22.5938 11.9522 22.5938 11.9883C22.5938 12.0244 22.5886 15.6147 22.1451 17.2798Z" fill="white"/>
<path d="M8.98535 16.5612L17.0156 11.9885L8.98535 7.41541V16.5612ZM10.3916 9.83459L14.1738 11.9885L10.3916 14.1422V9.83459Z" fill="white"/>
</g>
<defs>
<clipPath id="clip0_1_1739">
<rect width="24" height="24" fill="white"/>
</clipPath>
</defs>
</svg>
